HIERARCHY
ROOT Pelvis
{
	OFFSET 0.000000 0.000000 0.000000
	CHANNELS 6 Xposition Yposition Zposition Xrotation Yrotation Zrotation
	JOINT LeftUpLeg_virtual
	{
		OFFSET 0.000000 0.000000 0.000000
		CHANNELS 3 Xrotation Yrotation Zrotation
		JOINT LeftUpLeg
		{
			OFFSET 18.735201 -5.666702 -4.541200
			CHANNELS 3 Xrotation Yrotation Zrotation
			JOINT LeftLeg
			{
				OFFSET -0.021200 -31.938179 0.493100
				CHANNELS 3 Xrotation Yrotation Zrotation
				JOINT LeftFoot
				{
					OFFSET 0.021200 -31.938179 -4.336299
					CHANNELS 3 Xrotation Yrotation Zrotation
					JOINT LeftToeBase
					{
						OFFSET 0.943001 -26.722000 15.023500
						CHANNELS 3 Xrotation Yrotation Zrotation
						End Site
						{
							OFFSET 0 0 0
						}
					}
				}
			}
		}
	}
	JOINT RightUpLeg_virtual
	{
		OFFSET 0.000000 0.000000 0.000000
		CHANNELS 3 Xrotation Yrotation Zrotation
		JOINT RightUpLeg
		{
			OFFSET -18.735201 -5.666702 -4.541200
			CHANNELS 3 Xrotation Yrotation Zrotation
			JOINT RightLeg
			{
				OFFSET 0.018946 -31.938133 0.493100
				CHANNELS 3 Xrotation Yrotation Zrotation
				JOINT RightFoot
				{
					OFFSET -0.018946 -31.938126 -4.336299
					CHANNELS 3 Xrotation Yrotation Zrotation
					JOINT RightToeBase
					{
						OFFSET -0.943001 -26.722004 15.023500
						CHANNELS 3 Xrotation Yrotation Zrotation
						End Site
						{
							OFFSET 0 0 0
						}
					}
				}
			}
		}
	}
	JOINT Hips_virtual
	{
		OFFSET 0.000000 0.000000 0.000000
		CHANNELS 3 Xrotation Yrotation Zrotation
		JOINT Hips
		{
			OFFSET -0.000000 -0.000000 -0.000000
			CHANNELS 3 Xrotation Yrotation Zrotation
			JOINT Spine
			{
				OFFSET 0.000000 10.199997 -0.299500
				CHANNELS 3 Xrotation Yrotation Zrotation
				JOINT Spine1
				{
					OFFSET 0.000000 11.900002 -1.516600
					CHANNELS 3 Xrotation Yrotation Zrotation
					JOINT Spine2
					{
						OFFSET 0.000000 13.600006 -2.842500
						CHANNELS 3 Xrotation Yrotation Zrotation
						JOINT Neck_virtual
						{
							OFFSET 0.000000 0.000000 0.000000
							CHANNELS 3 Xrotation Yrotation Zrotation
							JOINT Neck
							{
								OFFSET 0.000000 9.624100 -2.890100
								CHANNELS 3 Xrotation Yrotation Zrotation
								JOINT Head
								{
									OFFSET 0.000000 14.068802 -1.351900
									CHANNELS 3 Xrotation Yrotation Zrotation
									End Site
									{
										OFFSET 0 0 0
									}
								}
							}
						}
						JOINT LeftShoulder_virtual
						{
							OFFSET 0.000000 0.000000 0.000000
							CHANNELS 3 Xrotation Yrotation Zrotation
							JOINT LeftShoulder
							{
								OFFSET 15.263000 10.923401 -0.547700
								CHANNELS 3 Xrotation Yrotation Zrotation
								JOINT LeftArm
								{
									OFFSET 25.438599 -2.830597 -13.032500
									CHANNELS 3 Xrotation Yrotation Zrotation
									JOINT LeftForeArm
									{
										OFFSET 29.960503 0.000000 0.000000
										CHANNELS 3 Xrotation Yrotation Zrotation
										JOINT LeftHand
										{
											OFFSET 27.849251 0.000000 0.000000
											CHANNELS 3 Xrotation Yrotation Zrotation
											End Site
											{
												OFFSET 0 0 0
											}
										}
									}
								}
							}
						}
						JOINT RightShoulder_virtual
						{
							OFFSET 0.000000 0.000000 0.000000
							CHANNELS 3 Xrotation Yrotation Zrotation
							JOINT RightShoulder
							{
								OFFSET -15.263000 10.923401 -0.547700
								CHANNELS 3 Xrotation Yrotation Zrotation
								JOINT RightArm
								{
									OFFSET -25.438599 -2.830597 -13.032500
									CHANNELS 3 Xrotation Yrotation Zrotation
									JOINT RightForeArm
									{
										OFFSET -29.960503 0.000000 0.000000
										CHANNELS 3 Xrotation Yrotation Zrotation
										JOINT RightHand
										{
											OFFSET -27.849251 0.000000 0.000000
											CHANNELS 3 Xrotation Yrotation Zrotation
											End Site
											{
												OFFSET 0 0 0
											}
										}
									}
								}
							}
						}
					}
				}
			}
		}
	}
}
MOTION
Frames: 9
Frame Time: 0.03333333
14.094018 81.119652 -10.985138 0.000000 0.000000 0.000000 164.944656 9.915531 -178.076364 -23.718984 53.467933 24.623532 40.630480 -2.022069 3.124988 -14.078091 29.305992 -23.877052 0.000000 0.000000 0.000000 165.403112 9.586311 -178.353246 -82.350314 21.097551 2.102354 44.901442 10.979286 8.657301 23.135294 -8.849212 -3.158491 0.000000 0.000000 0.000000 164.685300 8.555669 -178.365623 -0.780567 0.109208 -0.045833 28.624426 -3.586860 7.154788 -2.660267 -6.285685 2.638757 0.000000 0.000000 0.000000 -0.489128 -1.371987 2.698613 -1.198402 -2.006165 -2.191415 0.000000 0.000000 0.000000 -1.516615 -2.299015 2.506556 1.858976 -18.154259 18.388638 -62.165042 3.749750 -47.312748 3.278609 -66.185749 14.704386 0.000000 0.000000 0.000000 -1.907962 -0.537235 1.880736 3.169897 11.504785 6.335264 15.568028 11.124243 64.620372 8.863747 28.282027 -5.917279 0.000000 0.000000 0.000000 
13.743346 81.355789 -10.979988 0.000000 0.000000 0.000000 165.071452 9.000230 -177.897823 -21.866839 52.843616 23.192041 38.963992 -1.468725 2.822349 -12.497197 28.671024 -23.870108 0.000000 0.000000 0.000000 165.536875 8.657266 -178.161878 -81.395808 20.876647 1.647847 44.735338 11.275806 8.562538 22.531696 -8.687442 -3.276797 0.000000 0.000000 0.000000 164.799023 7.654842 -178.133806 -0.769447 0.100518 -0.044547 28.155165 -3.455795 7.671207 -2.318805 -6.257535 2.829792 0.000000 0.000000 0.000000 -0.104348 -1.370291 2.933474 -1.279950 -2.803505 -1.984985 0.000000 0.000000 0.000000 -1.301385 -2.310461 2.653080 1.565088 -17.703292 17.534699 -62.145801 4.804360 -47.421378 3.864942 -65.758609 15.074212 0.000000 0.000000 0.000000 -1.462641 -0.548398 2.075224 2.886463 10.547660 5.651838 15.504634 11.818415 65.115786 9.151570 29.141760 -5.749503 0.000000 0.000000 0.000000 
13.410263 81.572601 -10.991974 0.000000 0.000000 0.000000 165.192442 8.135469 -177.690527 -20.093175 52.240367 21.757796 37.282810 -0.926841 2.547086 -10.847718 28.091298 -23.820940 0.000000 0.000000 0.000000 165.666908 7.788400 -177.935321 -80.510247 20.644358 1.111137 44.560093 11.602602 8.512480 22.064494 -8.481371 -3.294786 0.000000 0.000000 0.000000 164.924152 6.785894 -177.885884 -0.757415 0.092580 -0.044923 27.786297 -3.316390 8.023589 -2.060276 -6.179951 2.955707 0.000000 0.000000 0.000000 0.150588 -1.325807 3.069159 -1.397147 -3.541640 -1.833109 0.000000 0.000000 0.000000 -1.147459 -2.272390 2.755980 1.362386 -17.435875 16.763239 -62.186980 5.610429 -47.395970 4.090745 -65.441087 14.994598 0.000000 0.000000 0.000000 -1.124061 -0.520459 2.212606 2.660045 9.590032 5.276270 15.460302 12.332158 65.528425 9.351664 30.020867 -5.436767 0.000000 0.000000 0.000000 
13.104414 81.771141 -11.010323 0.000000 0.000000 0.000000 165.309784 7.340622 -177.468136 -18.381294 51.653640 20.316176 35.599820 -0.409474 2.311461 -9.192774 27.559873 -23.753497 0.000000 0.000000 0.000000 165.791258 7.000575 -177.680309 -79.699941 20.393236 0.506319 44.420043 11.945991 8.489001 21.679596 -8.253361 -3.264192 0.000000 0.000000 0.000000 165.061493 5.980482 -177.642292 -0.748467 0.086226 -0.047456 27.522476 -3.164102 8.236254 -1.894525 -6.065270 2.999819 0.000000 0.000000 0.000000 0.265546 -1.252808 3.092568 -1.538207 -4.195713 -1.746986 0.000000 0.000000 0.000000 -1.062411 -2.197816 2.790608 1.250503 -17.334160 16.129200 -62.230851 6.108522 -47.230963 3.958908 -65.333232 14.474947 0.000000 0.000000 0.000000 -0.896362 -0.465466 2.269707 2.516485 8.674370 5.183846 15.469385 12.631499 65.779879 9.470080 30.948564 -4.968622 0.000000 0.000000 0.000000 
12.823551 81.953362 -11.037125 0.000000 0.000000 0.000000 165.426908 6.610769 -177.239379 -16.697647 51.059397 18.869900 33.926987 0.042751 2.129223 -7.625344 27.035243 -23.723989 0.000000 0.000000 0.000000 165.906046 6.282550 -177.405339 -78.940833 20.142921 -0.122738 44.328508 12.290500 8.468993 21.283933 -8.021438 -3.242401 0.000000 0.000000 0.000000 165.201430 5.215165 -177.397662 -0.745012 0.081528 -0.051047 27.346570 -3.002736 8.356242 -1.821328 -5.922685 2.969270 0.000000 0.000000 0.000000 0.263384 -1.169107 3.020208 -1.688075 -4.748024 -1.723996 0.000000 0.000000 0.000000 -1.050529 -2.100895 2.766019 1.226330 -17.337431 15.668533 -62.236977 6.320209 -46.939573 3.449822 -65.399184 13.532295 0.000000 0.000000 0.000000 -0.780491 -0.394177 2.254539 2.460034 7.866788 5.291476 15.482589 12.774724 65.870215 9.515832 31.851904 -4.354214 0.000000 0.000000 0.000000 
12.569997 82.124039 -11.047424 0.000000 0.000000 0.000000 165.553445 5.909313 -177.016975 -15.075546 50.449478 17.481260 32.311713 0.418197 1.997851 -6.176569 26.490211 -23.747183 0.000000 0.000000 0.000000 166.021244 5.584572 -177.135205 -78.214538 19.895759 -0.747103 44.292455 12.623282 8.444153 20.816120 -7.781495 -3.235216 0.000000 0.000000 0.000000 165.341886 4.458736 -177.164425 -0.749664 0.078981 -0.053270 27.223611 -2.846678 8.439126 -1.814622 -5.764555 2.895932 0.000000 0.000000 0.000000 0.189145 -1.085967 2.895310 -1.827324 -5.194910 -1.753857 0.000000 0.000000 0.000000 -1.083654 -1.989175 2.699443 1.268225 -17.378894 15.343188 -62.168047 6.310422 -46.582314 2.540185 -65.515639 12.190543 0.000000 0.000000 0.000000 -0.740292 -0.308089 2.196316 2.486010 7.207748 5.452932 15.448658 12.881260 65.840414 9.479606 32.581464 -3.614947 0.000000 0.000000 0.000000 
12.344481 82.283958 -11.031818 0.000000 0.000000 0.000000 165.699693 5.172146 -176.797684 -13.582197 49.838511 16.235443 30.821116 0.745715 1.902333 -4.840254 25.926768 -23.792440 0.000000 0.000000 0.000000 166.150458 4.843340 -176.880699 -77.520639 19.665209 -1.341782 44.339006 12.939477 8.403497 20.266421 -7.521229 -3.237711 0.000000 0.000000 0.000000 165.489022 3.667992 -176.939616 -0.756139 0.075946 -0.054448 27.111114 -2.723681 8.515359 -1.845293 -5.606223 2.813371 0.000000 0.000000 0.000000 0.080285 -1.003875 2.759712 -1.944252 -5.543969 -1.815702 0.000000 0.000000 0.000000 -1.138845 -1.878286 2.618531 1.343695 -17.411539 15.116006 -62.027338 6.130476 -46.208132 1.259288 -65.531519 10.532163 0.000000 0.000000 0.000000 -0.726893 -0.217465 2.133116 2.568047 6.695474 5.558114 15.387340 13.016913 65.704384 9.370542 33.105408 -2.802942 0.000000 0.000000 0.000000 
12.151103 82.432755 -10.994270 0.000000 0.000000 0.000000 165.877346 4.303618 -176.579924 -12.298698 49.214587 15.206605 29.518196 1.042814 1.839699 -3.627210 25.358667 -23.800170 0.000000 0.000000 0.000000 166.306227 3.958749 -176.641287 -76.853814 19.450697 -1.879575 44.446537 13.217661 8.349571 19.666206 -7.241852 -3.247796 0.000000 0.000000 0.000000 165.654285 2.753095 -176.722238 -0.762167 0.070365 -0.055563 26.995039 -2.660249 8.576461 -1.885270 -5.458659 2.755680 0.000000 0.000000 0.000000 -0.027122 -0.927615 2.653065 -2.037088 -5.806869 -1.888768 0.000000 0.000000 0.000000 -1.199434 -1.774331 2.552978 1.426199 -17.407152 14.916541 -61.827958 5.804431 -45.886437 -0.279931 -65.381849 8.690036 0.000000 0.000000 0.000000 -0.724371 -0.124195 2.098317 2.672011 6.332231 5.571789 15.336220 13.243851 65.503761 9.182996 33.372048 -1.956026 0.000000 0.000000 0.000000 
11.992821 82.571899 -10.951324 0.000000 0.000000 0.000000 166.090639 3.221462 -176.366727 -11.255726 48.542950 14.414054 28.445634 1.328003 1.824341 -2.572111 24.817195 -23.697633 0.000000 0.000000 0.000000 166.498852 2.858682 -176.422147 -76.214160 19.236301 -2.348069 44.635389 13.416715 8.270013 18.978340 -6.982598 -3.312172 0.000000 0.000000 0.000000 165.851282 1.654397 -176.519901 -0.765778 0.062695 -0.057039 26.859943 -2.673168 8.593153 -1.919769 -5.330725 2.735751 0.000000 0.000000 0.000000 -0.123274 -0.852260 2.591397 -2.110445 -6.002920 -1.952256 0.000000 0.000000 0.000000 -1.261388 -1.680043 2.512836 1.484909 -17.344039 14.682376 -61.540250 5.317019 -45.652790 -1.880517 -65.155852 6.853148 0.000000 0.000000 0.000000 -0.705220 -0.034383 2.100816 2.770812 6.078249 5.487490 15.377963 13.541179 65.218423 8.918753 33.451965 -1.108936 0.000000 0.000000 0.000000 
